<?xml version="1.0" encoding="utf-8"?>
<!-- Generator: Adobe Illustrator 18.1.1, SVG Export Plug-In . SVG Version: 6.00 Build 0)  -->
<!DOCTYPE svg PUBLIC "-//W3C//DTD SVG 1.1//EN" "http://www.w3.org/Graphics/SVG/1.1/DTD/svg11.dtd">
<svg version="1.1" id="Layer_1" xmlns="http://www.w3.org/2000/svg" xmlns:xlink="http://www.w3.org/1999/xlink" x="0px" y="0px"
	 viewBox="0 0 300 53" enable-background="new 0 0 300 53" xml:space="preserve">
<g>
	<path fill="#FFFFFF" d="M14.5,51.5c-5.4,0-10.3-1.6-12.8-3.3L0,39.9c4.7,3.3,9.6,5,14.9,5c5.5,0,9.2-3.1,9.2-7.7
		c0-4.3-2.6-7.2-8.6-9.1C6.6,25.3,1.9,20.3,1.9,13.5C1.9,6.6,7.1,0,17.6,0c4.9,0,9,1.6,10.8,2.9L27,9.1c-1.7-1.2-5.6-2.9-9.6-2.9
		c-5.1,0-8.2,3.1-8.2,6.8c0,3.3,2.8,5.9,8,7.7c8.6,3,14.4,7.5,14.4,15.9C31.6,45.5,25.7,51.5,14.5,51.5L14.5,51.5z"/>
	<path fill="#FFFFFF" d="M86.5,50.6l-2-22.4c-0.3-3.3-0.6-7.6-0.8-11.3h-0.2c-1.6,3.5-4,8.3-5.6,11.5L66.5,51h-2.8L52,28.4
		c-1.7-3.3-3.8-7.7-5.5-11.3h-0.1c-0.2,3.8-0.5,8.2-0.8,11.1l-2,22.4H37L41.2,1h4.7l13.2,25.5c2,3.9,4.6,8.9,6.2,12.7h0.2
		c1.5-3.8,4-8.6,6.1-12.7L84.6,1h4.7l4.4,49.6H86.5L86.5,50.6z"/>
	<path fill="#FFFFFF" d="M123.5,12.6c0,2.9-2.7,6.1-7.4,8.5c-3.5-3.4-5.7-5.9-5.7-8.5c0-3.1,2.7-6.5,6.2-6.5
		C120.4,6.1,123.5,9.4,123.5,12.6L123.5,12.6z M145.6,50.6l-9.4-9.4c2.7-3.6,4.4-7.5,5.4-10.3l-4.7-4.8c-1.1,3.3-2.9,7.2-5.3,10.5
		l-10.8-10.8c5-2.6,9.6-7.5,9.6-13.2c0-7.6-7-12.5-13.6-12.5c-6.4,0-13,4.9-13,12.5c0,4.1,2.6,8.5,6.1,11.9
		c-5.7,2.9-9.2,7.1-9.2,13.7c0,7.2,6.5,13.4,15.8,13.4c6.5,0,11.4-2.3,15.2-5.4l4.4,4.4H145.6L145.6,50.6z M126.9,41.5
		c-2.9,2.3-6.4,3.9-10.2,3.9c-5,0-9-3.4-9-7.6c0-4.1,2.2-6.5,6.7-8.8L126.9,41.5L126.9,41.5z"/>
	<path fill="#FFFFFF" d="M190.3,51.3h-2.6l-9.2-26.5c-1.3-3.8-2.7-7.9-4.3-13.3h-0.2c-1.5,5.4-2.9,9.6-4.3,13.3l-9.2,26.5H158
		L140.5,1h7.5l8,22.8c1.2,3.3,2.6,7.3,3.7,11.4h0.1c1.1-4,2.4-8,3.6-11.4L171.3,1h6.4l8,22.8c1.1,3.2,2.4,7.3,3.5,11.4h0.2
		c1-4,2.6-8.2,3.7-11.4L201,1h6.9L190.3,51.3L190.3,51.3z"/>
	<path fill="#C7A941" d="M242.9,14c0-8.3-6.7-13.5-15.7-13.6c-0.2,0-0.5,0-0.8,0c-7.7,0.3-12.7,3.7-13.7,4.5
		c-0.1,0.1-0.1,0.1-0.1,0.1c-0.6,0.4-0.9,1.2-0.5,1.9l2,3.1c0.5,0.7,1.4,1,1.9,0.5c0.7-0.5,1.3-0.9,2.7-1.5c3.7-1.8,6.8-1.9,6.8-1.9
		s0,0,0.1,0c0.3,0,0.7,0,1,0c5.1,0,8.9,3.2,8.9,8.2c0,4.4-3.9,7.8-10.9,7.8h-4.1c-1.1,0-1.5,0.5-1.5,1.6v3.2c0,1.1,0.6,1.6,1.4,1.6
		h4.1c8,0,12.1,3,12.1,8.4c0,3.8-2.1,6.6-5.7,7.8c-0.2,0-0.3,0.1-0.5,0.1c-0.3,0.1-0.7,0.1-1.1,0.1c-0.2,0-0.3,0-0.5,0
		c-0.5,0-1,0.1-1.6,0.1c0,0,0,0,0,0c0,0,0,0-0.1,0c-2,0-4-0.3-5.8-0.9c-0.3-0.1-0.6-0.2-0.9-0.3c-0.2-0.1-0.4-0.2-0.6-0.3
		c-0.4-0.2-0.7-0.3-1.1-0.5c-0.1-0.1-0.3-0.1-0.4-0.2c-0.5-0.2-0.9-0.5-1.4-0.8c0,0,0,0,0,0c-0.5-0.3-1-0.7-1.5-1h0
		c-0.1,0-0.1-0.1-0.2-0.1c-0.7-0.4-1.2-0.3-1.7,0.5l-2.2,3.3c-0.4,0.5-0.2,1.3,0.4,1.7c0.2,0.2,0.4,0.3,0.9,0.6
		c2.3,1.6,4.8,2.7,7.5,3.5c0.1,0,0.1,0,0.2,0.1c0.3,0.1,0.6,0.2,0.9,0.2c1.7,0.4,3.7,0.7,5.9,0.7c0,0,0,0,0.1,0c0,0,0,0,0.1,0v0
		c10.1-0.1,16.9-5.8,16.9-14.5c0-7.6-5.8-10.5-9.3-11.9v-0.2C238.2,24,242.9,19.7,242.9,14L242.9,14z"/>
	<path fill="#C7A941" d="M300,26.3c0-14.3-11.6-25.9-25.9-25.9c9,4.9,19.7,13.3,19.5,25.9c0.2,12.6-10.4,21-19.5,25.9
		C288.4,52.2,300,40.6,300,26.3L300,26.3z M269.8,0.8c-12.2,2.1-21.6,12.7-21.6,25.5c0,12.8,9.3,23.5,21.6,25.5
		c2.6-1.6,5.5-3.8,8-6.5c-1.2,0.2-2.4,0.4-3.7,0.4c-10.7,0-19.4-8.7-19.4-19.4c0-10.7,8.7-19.4,19.4-19.4c1.3,0,2.5,0.1,3.7,0.4
		C275.2,4.6,272.4,2.4,269.8,0.8L269.8,0.8z"/>
	<path fill="#C7A941" d="M260.1,29.8c0,0.1,0.1,0.2,0.2,0.2h1.1c0.1,0,0.2-0.1,0.2-0.2v-3.1l2.1-3.2c0.1-0.1,0-0.3-0.2-0.3h-1.2
		c-0.1,0-0.1,0-0.2,0.1l-1.3,2l-1.3-2c0,0-0.1-0.1-0.2-0.1h-1.2c-0.2,0-0.2,0.2-0.2,0.3l2.1,3.2V29.8L260.1,29.8z M265.2,29.8
		c0,0.1,0.1,0.2,0.2,0.2h4c0.1,0,0.2-0.1,0.2-0.2v-1c0-0.1-0.1-0.2-0.2-0.2h-2.7v-1.3h2.2c0.1,0,0.2-0.1,0.2-0.2v-1
		c0-0.1-0.1-0.2-0.2-0.2h-2.2v-1.2h2.7c0.1,0,0.2-0.1,0.2-0.2v-1c0-0.1-0.1-0.2-0.2-0.2h-4c-0.1,0-0.2,0.1-0.2,0.2V29.8L265.2,29.8z
		 M270.9,30h1.1c0.2,0,0.3-0.1,0.3-0.2l0.3-0.8h2.6l0.3,0.8c0.1,0.2,0.2,0.2,0.3,0.2h1.1c0.1,0,0.2-0.1,0.2-0.2l-3-6.5
		c0-0.1-0.1-0.1-0.2-0.1h-0.1c-0.1,0-0.1,0-0.2,0.1l-3,6.5C270.6,29.9,270.7,30,270.9,30L270.9,30z M273.2,27.7l0.7-1.6h0l0.7,1.6
		H273.2L273.2,27.7z M278.6,29.8c0,0.1,0.1,0.2,0.2,0.2h1.1c0.1,0,0.2-0.1,0.2-0.2v-2.4h0.7l1.3,2.5c0,0,0.1,0.1,0.2,0.1h1.3
		c0.2,0,0.2-0.2,0.2-0.3l-1.3-2.4c0.9-0.3,1.4-1,1.4-1.9c0-1.1-0.9-2.1-2.1-2.1h-2.9c-0.1,0-0.2,0.1-0.2,0.2V29.8L278.6,29.8z
		 M280.1,26.2v-1.5h1.4c0.4,0,0.7,0.3,0.7,0.7c0,0.5-0.3,0.8-0.7,0.8H280.1L280.1,26.2z M287.6,30.1c1.4,0,2.3-1,2.3-2
		c0-1.3-1.1-1.8-1.9-2.2c-0.7-0.3-1-0.6-1-0.9c0-0.3,0.2-0.5,0.6-0.5c0.5,0,1.1,0.4,1.3,0.5c0.2,0.1,0.4,0,0.4-0.1l0.5-0.7
		c0-0.1,0.1-0.2-0.1-0.3c-0.3-0.2-1.1-0.7-2.1-0.7c-1.5,0-2.2,1-2.2,1.9c0,1.2,0.9,1.7,1.9,2.1c0.6,0.3,1,0.6,1,1
		c0,0.3-0.3,0.6-0.7,0.6c-0.6,0-1.1-0.3-1.4-0.5c-0.1-0.1-0.2-0.1-0.3,0.1l-0.4,0.8c-0.1,0.1,0,0.2,0,0.3
		C285.7,29.6,286.3,30.1,287.6,30.1L287.6,30.1z"/>
</g>
</svg>
